<svg xmlns="http://www.w3.org/2000/svg" width="512" height="512" viewBox="0 0 512 512" data-svgdocument="" id="_NSeckdEUn8CgCMoXFdWiy" class="fl-svgdocument" x="0" y="0" xmlns:xlink="http://www.w3.org/1999/xlink" style="overflow: visible;"><defs id="_ad9sB9fXefCUiIEZm7FuM" transform="matrix(1.5768250704962978, 0, 0, 1.5768250704962978, -54.86032610701209, 121.85763544967462)" data-uid="o_emli61b2f_4"></defs><path id="_BgvvCxrCzQJCrTAygk4yN" fill="#4c96d7" transform="matrix(0.6820156829659397, 0, 0, 0.9719019314624341, 253.74301480911979, 149.14368433255697)" data-type="polygon" d="M88.385 8L0.391 160.359L176.379 160.359Z" data-uid="o_emli61b2f_5"></path><path id="_yKsSTN6EFJpBquNp52DAI" fill="#cf1717" transform="matrix(0.1928621232965719, 0, 0, 0.4948469721259772, 289.14999190391205, 230.06422327710533)" data-type="polygon" d="M88.385 8L0.391 160.359L176.379 160.359Z" data-uid="o_emli61b2f_6"></path><path id="_i97fEVs74BU2Kppb6ryfF" fill="#168200" transform="matrix(0.5913964741390156, 0, 0, 0.8089298782816874, 106.1824629223745, 146.0602801554926)" data-type="polygon" d="M88.385 8L0.391 160.359L176.379 160.359Z" data-uid="o_emli61b2f_7"></path><path id="__piAvsaxjazsP-GwRz68Y" fill="#f7e031" transform="matrix(0.24908411830823154, 0, 0, 0.24908411830823154, 419.4519225180746, 100.37449134240372)" data-type="circle" data-cx="88.385" data-cy="88.385" data-r="88.385" d="M88.385,88.385m-88.385,0a88.385,88.385 0 1, 0 176.77,0a88.385,88.385 0 1, 0 -176.77,0" data-uid="o_emli61b2f_8"></path><path text="just engine" text-anchor="middle" font-size="100" letter-spacing="0" side="left" offset="0.5" dx="0" dy="0" space="preserve" href="" font-family="Englebert" font-scale="contain" transform="matrix(1.1610464308598099, 0, 0, 1.1610464308598099, 253.15445986493958, 411.8203371960868)" x="0" y="0" fill="#000000" data-fl-textpath="" id="_V_DCe4xnSPWyWlFqeZAhl" data-uid="o_emli61b2f_9" d="M-192.090546875-65.92L-192.090546875-65.92Q-192.090546875-64.7 -192.550546875-63.65Q-193.020546875-62.6 -193.800546875-61.84Q-194.580546875-61.08 -195.600546875-60.64Q-196.630546875-60.21 -197.800546875-60.21L-197.800546875-60.21Q-199.020546875-60.21 -200.070546875-60.64Q-201.120546875-61.08 -201.900546875-61.84Q-202.680546875-62.6 -203.150546875-63.65Q-203.610546875-64.7 -203.610546875-65.92L-203.610546875-65.92Q-203.610546875-67.09 -203.150546875-68.14Q-202.680546875-69.19 -201.900546875-69.95Q-201.120546875-70.7 -200.070546875-71.14Q-199.020546875-71.58 -197.800546875-71.58L-197.800546875-71.58Q-196.630546875-71.58 -195.600546875-71.14Q-194.580546875-70.7 -193.800546875-69.95Q-193.020546875-69.19 -192.550546875-68.14Q-192.090546875-67.09 -192.090546875-65.92ZM-192.530546875 0L-192.530546875 0Q-192.530546875 5.76 -193.900546875 9.55Q-195.260546875 13.33 -197.510546875 15.72Q-199.760546875 18.12 -202.710546875 19.38Q-205.660546875 20.65-208.790546875 21.39L-208.790546875 21.39L-210.500546875 13.72Q-207.810546875 13.72-205.960546875 12.72Q-204.100546875 11.72 -202.900546875 10.18Q-201.710546875 8.64 -201.050546875 6.86Q-200.390546875 5.08 -200.100546875 3.52Q-199.800546875 1.95 -199.760546875 0.88Q-199.710546875-0.2 -199.710546875-0.29L-199.710546875-0.29Q-199.710546875-4.35 -199.900546875-11.23L-199.900546875-11.23Q-200.050546875-17.09 -200.390546875-26.68Q-200.730546875-36.28 -201.320546875-50.39L-201.320546875-50.39L-192.820546875-51.12Q-192.630546875-37.89 -192.530546875-28.52Q-192.430546875-19.14 -192.430546875-13.09L-192.430546875-13.09Q-192.430546875-9.57 -192.460546875-7.1Q-192.480546875-4.64 -192.480546875-3.08L-192.480546875-3.08Q-192.530546875-1.22 -192.530546875 0ZM-151.999375-50.2L-145.609375-50.2L-146.629375 0.39L-152.68937499999998 0.39L-153.319375-16.6Q-154.399375-13.38 -155.639375-10.91Q-156.889375-8.45 -158.179375-6.62Q-159.469375-4.79 -160.769375-3.49Q-162.059375-2.2 -163.27937500000002-1.32L-163.27937500000002-1.32Q-166.109375 0.68 -168.989375 1.12L-168.989375 1.12Q-172.849375 1.12 -175.459375-0.63Q-178.079375-2.39 -179.659375-5.91Q-181.249375-9.42 -181.929375-14.65Q-182.619375-19.87 -182.619375-26.81L-182.619375-26.81Q-182.619375-32.13 -182.279375-38.26Q-181.929375-44.38 -181.299375-51.51L-181.299375-51.51L-172.409375-50.78Q-173.679375-42.24 -174.239375-35.84Q-174.809375-29.44 -174.809375-24.71L-174.809375-24.71Q-174.809375-20.17 -174.409375-17.02Q-174.019375-13.87 -173.439375-11.84Q-172.849375-9.81 -172.139375-8.69Q-171.439375-7.57 -170.749375-7.03Q-170.069375-6.49 -169.509375-6.4Q-168.949375-6.3 -168.699375-6.3L-168.699375-6.3Q-166.849375-6.3 -165.139375-7.91Q-163.429375-9.52 -161.909375-12.21Q-160.399375-14.89 -159.109375-18.41Q-157.809375-21.92 -156.739375-25.71Q-155.659375-29.49 -154.809375-33.33Q-153.959375-37.16 -153.369375-40.48Q-152.77937500000002-43.8 -152.43937499999998-46.36Q-152.099375-48.93 -151.999375-50.2L-151.999375-50.2ZM-98.628984375-35.01L-107.41898437500001-35.3Q-107.328984375-35.74 -107.328984375-36.21Q-107.328984375-36.67 -107.328984375-37.21L-107.328984375-37.21Q-107.328984375-39.7 -108.028984375-41.87Q-108.738984375-44.04 -110.038984375-45.68Q-111.328984375-47.31 -113.178984375-48.27Q-115.038984375-49.22 -117.288984375-49.22L-117.288984375-49.22Q-119.868984375-49.22 -121.968984375-48.56Q-124.068984375-47.9 -125.558984375-46.63Q-127.048984375-45.36 -127.878984375-43.48Q-128.708984375-41.6 -128.708984375-39.11L-128.708984375-39.11Q-128.708984375-37.7 -127.99898437499999-36.21Q-127.298984375-34.72 -125.878984375-33.4Q-124.458984375-32.08 -122.388984375-31.05Q-120.308984375-30.03 -117.528984375-29.59L-117.528984375-29.59Q-112.308984375-28.71 -109.008984375-27.03Q-105.708984375-25.34 -103.828984375-23.24Q-101.94898437500001-21.14 -101.268984375-18.9Q-100.588984375-16.65 -100.588984375-14.7L-100.588984375-14.7Q-100.588984375-13.48 -100.858984375-11.91Q-101.118984375-10.35 -101.858984375-8.69Q-102.588984375-7.03 -103.878984375-5.44Q-105.178984375-3.86 -107.228984375-2.61Q-109.278984375-1.37 -112.128984375-0.59Q-114.988984375 0.2 -118.898984375 0.2L-118.898984375 0.2Q-119.288984375 0.2 -120.628984375 0.1Q-121.968984375 0 -123.798984375-0.54Q-125.638984375-1.07 -127.708984375-2.15Q-129.788984375-3.22 -131.638984375-5.18Q-133.498984375-7.13 -134.888984375-10.11Q-136.278984375-13.09 -136.718984375-17.38L-136.718984375-17.38L-128.708984375-17.82Q-128.368984375-14.99 -127.468984375-13.09Q-126.558984375-11.18 -125.368984375-9.94Q-124.16898437500001-8.69 -122.878984375-8.01Q-121.578984375-7.32 -120.438984375-7.01Q-119.288984375-6.69 -118.478984375-6.64Q-117.678984375-6.59 -117.528984375-6.59L-117.528984375-6.59Q-115.478984375-6.64 -113.788984375-7.3Q-112.108984375-7.96 -110.938984375-8.98Q-109.768984375-10.01 -109.128984375-11.35Q-108.49898437499999-12.7 -108.49898437499999-14.11L-108.49898437499999-14.11Q-108.49898437499999-15.33 -108.938984375-16.5Q-109.378984375-17.68 -110.568984375-18.73Q-111.768984375-19.78 -113.838984375-20.65Q-115.91898437500001-21.53 -119.188984375-22.22L-119.188984375-22.22Q-124.458984375-23.24 -127.858984375-25.27Q-131.248984375-27.29 -133.248984375-29.71Q-135.248984375-32.13 -136.038984375-34.62Q-136.818984375-37.11 -136.818984375-39.11L-136.818984375-39.11Q-136.818984375-42.09 -135.788984375-45.19Q-134.768984375-48.29 -132.448984375-50.85Q-130.128984375-53.42 -126.368984375-55.05Q-122.608984375-56.69 -117.088984375-56.69L-117.088984375-56.69Q-111.868984375-56.35 -107.758984375-54.3L-107.758984375-54.3Q-106.008984375-53.42 -104.318984375-52.08Q-102.638984375-50.73 -101.318984375-48.78Q-99.99898437499999-46.83 -99.19898437500001-44.21Q-98.388984375-41.6 -98.388984375-38.18L-98.388984375-38.18Q-98.388984375-37.45 -98.458984375-36.65Q-98.538984375-35.84 -98.628984375-35.01L-98.628984375-35.01ZM-86.620859375-71L-79.150859375-70.51L-79.34085937500001-54.3L-69.630859375-54.3L-69.630859375-48.1L-79.440859375-48.1L-80.130859375-0.2L-86.130859375-0.2L-86.520859375-48.1L-97.510859375-48.1L-97.510859375-54.3L-86.520859375-54.3L-86.620859375-71ZM-1.8509375000000006-28.71L-37.3509375-28.71Q-37.4509375-28.17 -37.4009375-27.66Q-37.3509375-27.15 -37.3509375-26.61L-37.3509375-26.61Q-37.3509375-21.73 -36.3809375-18.38Q-35.4009375-15.04 -33.9109375-12.84Q-32.4209375-10.64 -30.6409375-9.47Q-28.8609375-8.3 -27.2909375-7.74Q-25.7309375-7.18 -24.6109375-7.08Q-23.4909375-6.98 -23.2409375-6.98L-23.2409375-6.98Q-23.2909375-6.98 -22.5609375-7.06Q-21.8309375-7.13 -20.6309375-7.45Q-19.4309375-7.76 -17.9209375-8.45Q-16.4109375-9.13 -14.9209375-10.38Q-13.430937499999999-11.62 -12.110937499999999-13.5Q-10.790937499999998-15.38 -9.9609375-18.12L-9.9609375-18.12L-3.950937500000002-16.41Q-4.690937499999997-13.38 -5.910937500000003-11.04Q-7.130937500000002-8.69 -8.620937499999997-6.93Q-10.110937499999999-5.18 -11.790937499999998-3.93Q-13.480937500000003-2.69 -15.090937500000003-1.9L-15.090937500000003-1.9Q-18.9009375 0.05 -23.2409375 0.39L-23.2409375 0.39Q-27.5409375 0.39 -30.8309375-0.9Q-34.1309375-2.2 -36.5209375-4.39Q-38.9209375-6.59 -40.5309375-9.42Q-42.1409375-12.26 -43.0909375-15.36Q-44.0409375-18.46 -44.4609375-21.56Q-44.8709375-24.66 -44.8709375-27.39L-44.8709375-27.39Q-44.8709375-29.93 -44.5809375-32.96Q-44.2909375-35.99 -43.4609375-39.06Q-42.6309375-42.14 -41.1109375-45.02Q-39.6009375-47.9 -37.1609375-50.15Q-34.7209375-52.39 -31.2209375-53.74Q-27.7309375-55.08 -22.9509375-55.08L-22.9509375-55.08Q-22.1209375-55.08 -20.2409375-54.91Q-18.3609375-54.74 -16.0109375-53.93Q-13.6709375-53.13 -11.180937499999999-51.49Q-8.690937499999997-49.85 -6.620937499999997-46.92Q-4.540937499999998-43.99 -3.200937500000002-39.55Q-1.8509375000000006-35.11 -1.8509375000000006-28.71L-1.8509375000000006-28.71ZM-23.2409375-47.61L-23.2409375-47.61Q-26.6109375-47.36 -29.4409375-46L-29.4409375-46Q-30.6609375-45.41 -31.8609375-44.51Q-33.0609375-43.6 -34.0809375-42.31Q-35.1109375-41.02 -35.8909375-39.26Q-36.6709375-37.5 -36.9609375-35.21L-36.9609375-35.21L-10.160937500000003-35.21Q-10.450937500000002-38.09 -11.720937499999998-40.38Q-12.990937500000001-42.68 -14.8209375-44.29Q-16.6509375-45.9 -18.8709375-46.75Q-21.0909375-47.61 -23.2409375-47.61ZM 41.745859375-0.2L 35.055859375 0.2Q 34.665859375-7.23  34.305859375-13.16Q 33.935859375-19.09  33.645859375-23.29L 33.645859375-23.29Q 33.295859375-28.17  32.955859375-31.98L 32.955859375-31.98Q 32.565859375-37.89  31.465859375-40.89Q 30.375859375-43.9  28.665859375-43.9L 28.665859375-43.9Q 26.955859375-43.9  25.195859375-41.75Q 23.435859375-39.6  21.725859375-36.04Q 20.015859375-32.47  18.485859375-27.91Q 16.945859375-23.34  15.645859375-18.51Q 14.355859375-13.67  13.405859375-8.94Q 12.455859375-4.2  11.965859375-0.39L 11.965859375-0.39L 5.275859375-0.2Q 5.565859375-8.3  5.565859375-15.58L 5.565859375-15.58Q 5.565859375-23.19  5.325859375-29.52Q 5.075859375-35.84  4.785859375-40.43L 4.785859375-40.43Q 4.445859375-45.8  4.055859375-50.1L 4.055859375-50.1L 13.475859375-49.71L 13.475859375-30.08Q 14.595859375-33.3  15.475859375-35.5Q 16.355859375-37.7  16.945859375-39.06L 16.945859375-39.06Q 17.625859375-40.67  18.065859375-41.6L 18.065859375-41.6Q 19.335859375-43.99  20.845859375-45.87Q 22.365859375-47.75  23.995859375-49.05Q 25.635859375-50.34  27.315859375-51.03Q 29.005859375-51.71  30.565859375-51.71L 30.565859375-51.71Q 32.125859375-51.71  33.495859375-51.03Q 34.865859375-50.34  35.915859375-48.88Q 36.965859375-47.41  37.715859375-45.14Q 38.475859375-42.87  38.865859375-39.7L 38.865859375-39.7Q 39.645859375-34.42  40.235859375-28.17L 40.235859375-28.17Q 40.775859375-22.8  41.215859375-15.63Q 41.645859375-8.45  41.745859375-0.2L 41.745859375-0.2ZM 89.453671875-60.5L 83.25367187500001-49.51Q 85.403671875-47.31  86.763671875-44.6Q 88.133671875-41.89  88.913671875-39.01Q 89.693671875-36.13  89.99367187499999-33.25Q 90.28367187500001-30.37  90.28367187500001-27.88L 90.28367187500001-27.88Q 90.233671875-22.66  89.28367187500001-18.48Q 88.333671875-14.31  86.763671875-11.06Q 85.203671875-7.81  83.153671875-5.47Q 81.103671875-3.13  78.833671875-1.61Q 76.563671875-0.1  74.193671875 0.61Q 71.823671875 1.32  69.673671875 1.32L 69.673671875 1.32Q 67.873671875 1.32  66.233671875 1.03Q 64.603671875 0.73  63.183671875 0.29L 63.183671875 0.29Q 61.913671875 1.22  60.913671875 2.29Q 59.913671875 3.37  59.183671875 4.47Q 58.443671875 5.57  58.053671875 6.64Q 57.663671875 7.71  57.663671875 8.69L 57.663671875 8.69Q 57.663671875 10.35  58.613671875 11.23Q 59.573671875 12.11  60.453671875 12.11L 60.453671875 12.11Q 61.723671875 12.11  63.033671874999996 11.4Q 64.353671875 10.69  65.793671875 9.62Q 67.233671875 8.54  68.823671875 7.3Q 70.413671875 6.05  72.143671875 4.98Q 73.873671875 3.91  75.833671875 3.2Q 77.78367187500001 2.49  79.983671875 2.49L 79.983671875 2.49Q 81.933671875 2.49  83.74367187499999 3.03Q 85.543671875 3.56  87.083671875 4.61Q 88.623671875 5.66  89.74367187499999 7.23Q 90.873671875 8.79  91.453671875 10.89L 91.453671875 10.89Q 91.703671875 11.72  91.77367187499999 12.5Q 91.843671875 13.28  91.843671875 14.11L 91.843671875 14.11Q 91.843671875 18.21  89.963671875 21.39Q 88.083671875 24.56  84.913671875 26.73Q 81.733671875 28.91  77.513671875 30Q 73.293671875 31.1  68.55367187499999 31.1L 68.55367187499999 31.1Q 66.743671875 31.1  64.913671875 30.88Q 63.083671875 30.66  61.283671874999996 30.18L 61.283671874999996 30.18L 62.153671875 25.78Q 63.133671875000005 26.03  64.083671875 26.12Q 65.043671875 26.22  65.963671875 26.22L 65.963671875 26.22Q 68.313671875 26.22  70.313671875 25.81Q 72.313671875 25.39  73.783671875 24.85L 73.783671875 24.85Q 75.483671875 24.27  76.953671875 23.49L 76.953671875 23.49Q 80.903671875 21.29  82.593671875 19.24Q 84.27367187499999 17.19  84.27367187499999 15.19L 84.27367187499999 15.19Q 84.27367187499999 14.16  83.913671875 13.26Q 83.543671875 12.35  82.913671875 11.65Q 82.27367187499999 10.94  81.393671875 10.52Q 80.513671875 10.11  79.443671875 10.11L 79.443671875 10.11Q 77.733671875 10.11  75.483671875 11.21Q 73.243671875 12.3  70.463671875 14.79L 70.463671875 14.79Q 68.113671875 16.85  65.573671875 17.82Q 63.033671874999996 18.8  60.453671875 18.8L 60.453671875 18.8Q 58.743671875000004 18.8  57.003671875 18.29Q 55.273671875 17.77  53.883671875 16.8Q 52.493671875000004 15.82  51.583671875 14.33Q 50.683671875 12.84  50.683671875 10.89L 50.683671875 10.89Q 50.683671875 9.38  51.173671875 7.69Q 51.663671875 6.01  52.633671875 4.32Q 53.613671875 2.64  55.053671875 1.03Q 56.493671875000004-0.59  58.353671875-2L 58.353671875-2Q 55.423671875-4.1  53.463671875-7.15Q 51.513671875-10.21  50.293671875-13.72Q 49.073671875-17.24  48.563671875-20.97Q 48.043671875-24.71  48.043671875-28.22L 48.043671875-28.22Q 48.043671875-35.16  49.633671875-40.19Q 51.223671875-45.21  53.983671875-48.49Q 56.733671875-51.76  60.473671875-53.32Q 64.213671875-54.88  68.55367187499999-54.88L 68.55367187499999-54.88Q 71.193671875-54.88  73.433671875-54.47Q 75.683671875-54.05  77.583671875-53.32L 77.583671875-53.32L 82.373671875-65.48L 89.453671875-60.5ZM 83.25367187500001-27.98L 83.25367187500001-27.98Q 83.25367187500001-29.49  83.133671875-31.4Q 83.00367187500001-33.3  82.593671875-35.3Q 82.173671875-37.3  81.423671875-39.28Q 80.663671875-41.26  79.443671875-42.92L 79.443671875-42.92L 75.05367187499999-35.11L 71.243671875-37.21L 74.953671875-46.68Q 73.683671875-47.22  72.163671875-47.56Q 70.653671875-47.9  68.843671875-47.9L 68.843671875-47.9Q 61.723671875-47.61  58.393671875-42.58Q 55.073671875-37.55  55.073671875-28.32L 55.073671875-28.32Q 55.073671875-21.97  56.273671875-17.63Q 57.473671875-13.28  59.373671875-10.62Q 61.283671874999996-7.96  63.643671874999995-6.79Q 66.013671875-5.62  68.363671875-5.62L 68.363671875-5.62Q 70.853671875-5.62  73.463671875-6.86Q 76.073671875-8.11  78.24367187499999-10.82Q 80.423671875-13.53  81.813671875-17.75Q 83.203671875-21.97  83.25367187500001-27.98ZM 108.54640625-65.92L 108.54640625-65.92Q 108.54640625-64.7  108.07640625-63.65Q 107.61640625-62.6  106.83640625-61.84Q 106.05640625-61.08  105.00640625-60.64Q 103.95640625-60.21  102.78640625-60.21L 102.78640625-60.21Q 101.60640624999999-60.21  100.56640625-60.64Q 99.51640625-61.08  98.75640625-61.84Q 97.99640625-62.6  97.53640625-63.65Q 97.06640625-64.7  97.06640625-65.92L 97.06640625-65.92Q 97.06640625-67.09  97.53640625-68.14Q 97.99640625-69.19  98.75640625-69.95Q 99.51640625-70.7  100.56640625-71.14Q 101.60640624999999-71.58  102.78640625-71.58L 102.78640625-71.58Q 103.95640625-71.58  105.00640625-71.14Q 106.05640625-70.7  106.83640625-69.95Q 107.61640625-69.19  108.07640625-68.14Q 108.54640625-67.09  108.54640625-65.92ZM 98.48640625-50.59L 106.68640625-50L 105.85640624999999-1.22L 99.16640625-1.22L 98.48640625-50.59ZM 155.0759375-0.2L 148.3859375 0.2Q 147.9959375-7.23  147.6359375-13.16Q 147.2659375-19.09  146.9759375-23.29L 146.9759375-23.29Q 146.6259375-28.17  146.2859375-31.98L 146.2859375-31.98Q 145.8959375-37.89  144.7959375-40.89Q 143.7059375-43.9  141.9959375-43.9L 141.9959375-43.9Q 140.2859375-43.9  138.5259375-41.75Q 136.7659375-39.6  135.0559375-36.04Q 133.3459375-32.47  131.8159375-27.91Q 130.2759375-23.34  128.9759375-18.51Q 127.6859375-13.67  126.7359375-8.94Q 125.7859375-4.2  125.29593750000001-0.39L 125.29593750000001-0.39L 118.6059375-0.2Q 118.8959375-8.3  118.8959375-15.58L 118.8959375-15.58Q 118.8959375-23.19  118.6559375-29.52Q 118.4059375-35.84  118.1159375-40.43L 118.1159375-40.43Q 117.7759375-45.8  117.3859375-50.1L 117.3859375-50.1L 126.8059375-49.71L 126.8059375-30.08Q 127.9259375-33.3  128.8059375-35.5Q 129.6859375-37.7  130.2759375-39.06L 130.2759375-39.06Q 130.9559375-40.67  131.3959375-41.6L 131.3959375-41.6Q 132.66593749999998-43.99  134.1759375-45.87Q 135.6959375-47.75  137.3259375-49.05Q 138.9659375-50.34  140.6459375-51.03Q 142.3359375-51.71  143.8959375-51.71L 143.8959375-51.71Q 145.4559375-51.71  146.8259375-51.03Q 148.1959375-50.34  149.2459375-48.88Q 150.2959375-47.41  151.0459375-45.14Q 151.8059375-42.87  152.1959375-39.7L 152.1959375-39.7Q 152.9759375-34.42  153.5659375-28.17L 153.5659375-28.17Q 154.1059375-22.8  154.5459375-15.63Q 154.9759375-8.45  155.0759375-0.2L 155.0759375-0.2ZM 204.20375-28.71L 168.70375-28.71Q 168.60375-28.17  168.65375-27.66Q 168.70375-27.15  168.70375-26.61L 168.70375-26.61Q 168.70375-21.73  169.67375-18.38Q 170.65375-15.04  172.14375-12.84Q 173.63375-10.64  175.41375-9.47Q 177.19375-8.3  178.76375000000002-7.74Q 180.32375-7.18  181.44375-7.08Q 182.56375-6.98  182.81375-6.98L 182.81375-6.98Q 182.76375000000002-6.98  183.49375-7.06Q 184.22375-7.13  185.42374999999998-7.45Q 186.62375-7.76  188.13375-8.45Q 189.64375-9.13  191.13375-10.38Q 192.62375-11.62  193.94375-13.5Q 195.26375000000002-15.38  196.09375-18.12L 196.09375-18.12L 202.10375-16.41Q 201.36375-13.38  200.14375-11.04Q 198.92374999999998-8.69  197.43375-6.93Q 195.94375-5.18  194.26375000000002-3.93Q 192.57375-2.69  190.96375-1.9L 190.96375-1.9Q 187.15375 0.05  182.81375 0.39L 182.81375 0.39Q 178.51375000000002 0.39  175.22375-0.9Q 171.92375-2.2  169.53375-4.39Q 167.13375-6.59  165.52375-9.42Q 163.91375-12.26  162.96375-15.36Q 162.01375-18.46  161.59375-21.56Q 161.18375-24.66  161.18375-27.39L 161.18375-27.39Q 161.18375-29.93  161.47375-32.96Q 161.76375-35.99  162.59375-39.06Q 163.42375-42.14  164.94375-45.02Q 166.45375-47.9  168.89375-50.15Q 171.33375-52.39  174.83375-53.74Q 178.32375-55.08  183.10375-55.08L 183.10375-55.08Q 183.93375-55.08  185.81375-54.91Q 187.69375-54.74  190.04375-53.93Q 192.38375-53.13  194.87375-51.49Q 197.36375-49.85  199.43375-46.92Q 201.51375000000002-43.99  202.85375-39.55Q 204.20375-35.11  204.20375-28.71L 204.20375-28.71ZM 182.81375-47.61L 182.81375-47.61Q 179.44375-47.36  176.61375-46L 176.61375-46Q 175.39375-45.41  174.19375-44.51Q 172.99375-43.6  171.97375-42.31Q 170.94375-41.02  170.16375-39.26Q 169.38375-37.5  169.09375-35.21L 169.09375-35.21L 195.89375-35.21Q 195.60375-38.09  194.33375-40.38Q 193.06375-42.68  191.23375-44.29Q 189.40375-45.9  187.18375-46.75Q 184.96375-47.61  182.81375-47.61Z"></path><g id="_IgNMwPYraIRTUHe8W--jb" transform="matrix(1.315096460546687, 0, 0, 1.315096460546687, -81.34229933212109, -59.72940056912236)" data-uid="o_emli61b2f_10"><path id="_W7ObXJ4BSZ9pGU5wXxYoj" d="M81.44,86.337h-6.885L51.302,25.878l2.044-5.557c0.313-0.856-0.128-1.807-0.986-2.122      c-0.851-0.313-1.809,0.125-2.122,0.981l-0.82,2.23l-0.988-2.31c-0.359-0.837-1.333-1.228-2.17-0.869      c-0.841,0.359-1.231,1.331-0.872,2.17l2.363,5.524l-23.233,60.41h-7.724c-0.915,0-1.654,0.74-1.654,1.654      s0.739,1.654,1.654,1.654h8.862h12.092h27.648h8.022h8.022c0.915,0,1.654-0.74,1.654-1.654S82.355,86.337,81.44,86.337z       M40.865,86.337l8.671-22.548l8.671,22.548H40.865z M28.062,86.337l1.947-5.061h2.927c0.684,0,1.239-0.554,1.239-1.238      c0-0.687-0.556-1.24-1.239-1.24h-1.974l0.642-1.675h4.064c0.685,0,1.239-0.557,1.239-1.242c0-0.684-0.555-1.238-1.239-1.238      H32.56l15.821-41.136v26.836L38.38,86.337h-0.633H28.062z M65.396,86.337h-4.703L50.691,60.343V33.507l20.319,52.83H65.396z" fill="#000000" transform="matrix(1.8038442134857178, 0, 0, 1.8038442134857178, 203.6735076904297, 121.3954849243164)" data-uid="o_emli61b2f_11"></path><path id="_mtrrfKQOt4C6tASPHFx_r" fill="#000000" d="M49.001,22.768c-1.641,0-2.97-1.329-2.97-2.97V2.97c0-1.64,1.329-2.97,2.97-2.97  c1.64,0,2.969,1.33,2.969,2.97v16.829C51.97,21.439,50.641,22.768,49.001,22.768z" transform="matrix(0.9149097800254822, 0, 0, 0.9149097800254822, 355.5015563964844, 94.13797760009766)" data-uid="o_emli61b2f_12"></path><path id="_YCWn-DGgPy-EBZOCAs6xH" fill="#000000" d="M49.001,98c-1.641,0-2.97-1.329-2.97-2.97V78.203c0-1.64,1.329-2.97,2.97-2.97c1.64,0,2.969,1.33,2.969,2.97  v16.828C51.97,96.671,50.641,98,49.001,98z" transform="matrix(0.9149097800254822, 0, 0, 0.9149097800254822, 355.5015563964844, 93.92372131347656)" data-uid="o_emli61b2f_13"></path><path id="_xiOEINHfOh5V-n2289ooQ" fill="#000000" d="M95.032,51.968H78.203c-1.64,0-2.97-1.328-2.97-2.969c0-1.64,1.33-2.97,2.97-2.97h16.829  c1.64,0,2.97,1.33,2.97,2.97C98.001,50.64,96.671,51.968,95.032,51.968z" transform="matrix(0.9149097800254822, 0, 0, 0.9149097800254822, 354.85858154296875, 93.65345001220703)" data-uid="o_emli61b2f_14"></path><path id="_8wwx5EkmPpGsBRCjo-6rm" fill="#000000" d="M19.798,51.968H2.969C1.329,51.968,0,50.64,0,49c0-1.64,1.329-2.97,2.969-2.97h16.829  c1.64,0,2.97,1.33,2.97,2.97C22.768,50.64,21.438,51.968,19.798,51.968z" transform="matrix(0.9149097800254822, 0, 0, 0.9149097800254822, 355.0735778808594, 93.65253448486328)" data-uid="o_emli61b2f_15"></path><path id="_RTlekEmWEvbfrQ0_IfGP0" fill="#000000" d="M81.549,84.519c-0.76,0-1.52-0.29-2.1-0.87L67.55,71.75c-1.16-1.16-1.16-3.039,0-4.198  c1.159-1.16,3.039-1.16,4.199,0L83.649,79.45c1.16,1.16,1.16,3.04,0,4.199C83.07,84.229,82.309,84.519,81.549,84.519z" transform="matrix(0.9149097800254822, 0, 0, 0.9149097800254822, 354.9074401855469, 93.9705581665039)" data-uid="o_emli61b2f_16"></path><path id="_bs0uH4XzALQNltfFftFK9" fill="#000000" d="M28.353,31.321c-0.759,0-1.519-0.29-2.099-0.87l-11.9-11.899c-1.16-1.159-1.16-3.039,0-4.199  c1.16-1.16,3.04-1.16,4.2,0l11.9,11.899c1.16,1.159,1.16,3.04,0,4.2C29.873,31.031,29.113,31.321,28.353,31.321z" transform="matrix(0.9149097800254822, 0, 0, 0.9149097800254822, 355.0878601074219, 94.15335083007812)" data-uid="o_emli61b2f_17"></path><path id="_u8FEJi1HVyWa68ZplAy2B" fill="#000000" d="M16.454,84.521c-0.76,0-1.52-0.29-2.1-0.87c-1.16-1.159-1.16-3.039,0-4.199l11.899-11.899  c1.16-1.16,3.039-1.16,4.199,0c1.16,1.159,1.16,3.038,0,4.198l-11.899,11.9C17.975,84.231,17.214,84.521,16.454,84.521z" transform="matrix(0.9149097800254822, 0, 0, 0.9149097800254822, 355.0878601074219, 93.96965026855469)" data-uid="o_emli61b2f_18"></path><path id="_DelgUmeOU2oXaYv7BxCKe" fill="#000000" d="M69.652,31.324c-0.76,0-1.521-0.29-2.1-0.87c-1.16-1.159-1.16-3.041,0-4.2l11.899-11.9  c1.16-1.161,3.04-1.161,4.199,0c1.16,1.159,1.16,3.04,0,4.199l-11.899,11.9C71.171,31.034,70.412,31.324,69.652,31.324z" transform="matrix(0.9149097800254822, 0, 0, 0.9149097800254822, 354.9056091308594, 94.15312194824219)" data-uid="o_emli61b2f_19"></path><path id="_hUKQYueFe6UXkX0SdyEgE" fill="#000000" d="M49.001,68.362C38.326,68.362,29.64,59.676,29.64,49c0-10.675,8.686-19.361,19.361-19.361  c10.676,0,19.361,8.686,19.361,19.361C68.362,59.676,59.677,68.362,49.001,68.362z M49.001,35.579  c-7.401,0-13.422,6.02-13.422,13.421c0,7.4,6.021,13.422,13.422,13.422c7.401,0,13.421-6.021,13.421-13.422  C62.422,41.599,56.402,35.579,49.001,35.579z" transform="matrix(0.9149097800254822, 0, 0, 0.9149097800254822, 355.40203857421875, 94.46790313720703)" data-uid="o_emli61b2f_20"></path><path id="_09NgMxOIl4MLCCHelL8E_" d="M73.138,70.965H27.361c-0.576,0-1.112-0.294-1.422-0.779s-0.351-1.096-0.108-1.618l23.282-50.209    c0.276-0.596,0.874-0.978,1.531-0.978c0.003,0,0.007,0,0.011,0c0.661,0.004,1.259,0.394,1.529,0.998l22.495,50.209    c0.234,0.522,0.188,1.127-0.124,1.607C74.244,70.675,73.71,70.965,73.138,70.965z M30.003,67.59h40.53L50.617,23.137L30.003,67.59    z" fill="#000000" transform="matrix(1.8038442134857178, 0, 0, 1.8038442134857178, 87.26446533203125, 126.29582977294922)" data-uid="o_emli61b2f_21"></path><path id="_8hQOo6fyCyW9BbK2Qq7cC" d="M50.284,86.041c-0.865,0-1.566-0.701-1.566-1.566V39.808c0-0.865,0.701-1.566,1.566-1.566s1.566,0.701,1.566,1.566v44.667    C51.85,85.339,51.148,86.041,50.284,86.041z" fill="#000000" transform="matrix(1.8038442134857178, 0, 0, 1.8038442134857178, 87.18485260009766, 126.54656982421875)" data-uid="o_emli61b2f_22"></path><path id="_7v2tDBv7vSKClTboehG8W" d="M50.272,67.604c-0.5,0-0.996-0.222-1.329-0.646c-0.575-0.733-0.447-1.794,0.286-2.369l9.643-7.566    c0.732-0.575,1.793-0.447,2.369,0.286c0.575,0.733,0.447,1.794-0.286,2.369l-9.643,7.566    C51.004,67.486,50.637,67.604,50.272,67.604z M49.786,63.206c-0.43,0-0.86-0.164-1.19-0.491L39.629,53.8    c-0.661-0.657-0.664-1.726-0.007-2.387c0.658-0.661,1.725-0.664,2.387-0.007l8.967,8.915c0.661,0.657,0.664,1.726,0.007,2.387    C50.653,63.04,50.22,63.206,49.786,63.206z M50.271,56.988c-0.434,0-0.867-0.166-1.196-0.498    c-0.657-0.661-0.654-1.729,0.006-2.386l8.286-8.241c0.661-0.658,1.73-0.654,2.386,0.006c0.657,0.661,0.654,1.729-0.006,2.386    l-8.286,8.241C51.132,56.825,50.702,56.988,50.271,56.988z M49.899,51.012c-0.565,0-1.118-0.284-1.438-0.801l-5.129-8.306    c-0.49-0.793-0.244-1.833,0.549-2.322c0.792-0.49,1.833-0.244,2.323,0.549l5.129,8.306c0.49,0.793,0.244,1.833-0.549,2.322    C50.508,50.931,50.202,51.012,49.899,51.012z" fill="#000000" transform="matrix(1.8038442134857178, 0, 0, 1.8038442134857178, 87.34135437011719, 125.48433685302734)" data-uid="o_emli61b2f_23"></path><path id="_y8-tZ3ixPD2D-qgxeWBTI" d="M50.284,86.041c-0.865,0-1.566-0.701-1.566-1.566V39.808c0-0.865,0.701-1.566,1.566-1.566s1.566,0.701,1.566,1.566v44.667    C51.85,85.339,51.148,86.041,50.284,86.041z" fill="#000000" transform="matrix(0, 1.8038442134857178, -5.079986095428467, 0, 568.984619140625, 188.82247924804688)" data-uid="o_emli61b2f_24"></path></g></svg>