<svg xmlns="http://www.w3.org/2000/svg" width="512" height="512" viewBox="0 0 512 512" data-svgdocument="" id="_c1G4TamGfGPUK72BBczCB" class="fl-svgdocument" x="0" y="0" xmlns:xlink="http://www.w3.org/1999/xlink" overflow="hidden" style="overflow: visible;"><defs id="_STnhNoVhiBT2PAP_3aMkH" transform="matrix(0.9501743811330382, 0, 0, 0.9501743811330382, -36.28760970271876, 100.21489068800572)" data-uid="o_emmnm9kh0_4"></defs><path text="just" text-anchor="middle" font-size="100" letter-spacing="0" side="left" offset="0.5" dx="0" dy="0" space="preserve" href="" font-family="Akaya Kanadaka" font-scale="contain" transform="matrix(0.7572208850764287, 0, 0, 0.7572208850764287, 379.4519125690414, 235.10070472731795)" x="0" y="0" fill="#222630" data-fl-textpath="" id="_a-0vYUPOqmqLfqlO-t7SH" data-uid="o_emmnm9kh0_5" d="M-63.500000000000014-49.7L-63.500000000000014-49.7Q-66.30000000000001-49.8 -68.00000000000001-51.4Q-69.70000000000002-53 -69.60000000000001-55.9L-69.60000000000001-55.9Q-69.50000000000001-59 -67.50000000000001-60.95Q-65.50000000000001-62.9 -62.40000000000001-62.8L-62.40000000000001-62.8Q-59.500000000000014-62.7 -57.90000000000001-61.1Q-56.30000000000001-59.5 -56.40000000000001-56.6L-56.40000000000001-56.6Q-56.500000000000014-53.6 -58.40000000000001-51.65Q-60.30000000000001-49.7 -63.500000000000014-49.7ZM-78.4 27.6L-78.4 27.6Q-82.30000000000001 27.6-85.15 25.5Q-88.00000000000001 23.4-88.00000000000001 19.6L-88.00000000000001 19.6Q-88.00000000000001 16.6-86.45000000000002 14.9Q-84.9 13.2-83.20000000000002 13.2L-83.20000000000002 13.2Q-82.00000000000001 13.2-80.9 14.2L-80.9 14.2Q-80.00000000000001 15.1-78.85000000000001 15.6Q-77.70000000000002 16.1-76.00000000000001 16.1L-76.00000000000001 16.1Q-72.30000000000001 16.1 -70.55000000000001 13.65Q-68.80000000000001 11.2 -68.10000000000001 7.4L-68.10000000000001 7.4Q-66.80000000000001 1 -66.50000000000001-4.6Q-66.20000000000002-10.2 -66.20000000000002-16.5L-66.20000000000002-16.5Q-66.20000000000002-22.8 -66.65-26.15Q-67.10000000000001-29.5 -69.4-30.6L-69.4-30.6Q-70.9-31.4 -71.60000000000001-32Q-72.30000000000001-32.6 -72.30000000000001-33.6L-72.30000000000001-33.6Q-72.30000000000001-35.1 -70.95000000000002-36.7Q-69.60000000000001-38.3 -67.4-39.4Q-65.20000000000002-40.5 -62.70000000000001-40.5L-62.70000000000001-40.5Q-59.80000000000001-40.5 -58.55000000000001-39Q-57.30000000000001-37.5 -56.95000000000001-35.2Q-56.60000000000001-32.9 -56.70000000000001-30.3L-56.70000000000001-30.3Q-56.80000000000001-19.6 -57.750000000000014-9.95Q-58.70000000000001-0.3 -61.30000000000001 8.2L-61.30000000000001 8.2Q-63.90000000000001 17.3 -68.05000000000001 22.45Q-72.20000000000002 27.6-78.4 27.6ZM-33.900000000000006 1.3L-33.900000000000006 1.3Q-38.900000000000006 1.3 -41.650000000000006-1.6Q-44.40000000000001-4.5 -44.40000000000001-10L-44.40000000000001-10Q-44.40000000000001-13.9 -43.30000000000001-18L-43.30000000000001-18Q-42.80000000000001-19.7 -42.50000000000001-21.4Q-42.20000000000001-23.1 -42.20000000000001-24.8L-42.20000000000001-24.8Q-42.20000000000001-29.2 -44.90000000000001-30.5L-44.90000000000001-30.5Q-47.50000000000001-31.9 -47.50000000000001-33.5L-47.50000000000001-33.5Q-47.50000000000001-35.1 -46.15000000000001-36.7Q-44.80000000000001-38.3 -42.80000000000001-39.35Q-40.80000000000001-40.4 -38.80000000000001-40.4L-38.80000000000001-40.4Q-33.10000000000001-40.4 -33.10000000000001-31.1L-33.10000000000001-31.1Q-33.10000000000001-28.1 -33.55000000000001-25.55Q-34.000000000000014-23 -34.60000000000001-20.7L-34.60000000000001-20.7Q-35.000000000000014-19.1 -35.250000000000014-17.5Q-35.500000000000014-15.9 -35.500000000000014-14.7L-35.500000000000014-14.7Q-35.500000000000014-9.7 -30.60000000000001-9.7L-30.60000000000001-9.7Q-26.00000000000001-9.7 -22.00000000000001-14.6Q-18.000000000000007-19.5 -15.400000000000013-28.3L-15.400000000000013-28.3L-15.500000000000007-30.2Q-15.70000000000001-35.2 -13.750000000000007-37.8Q-11.800000000000011-40.4 -8.000000000000007-40.4L-8.000000000000007-40.4Q-4.70000000000001-40.4 -4.70000000000001-38.3L-4.70000000000001-38.3Q-4.70000000000001-37.6 -4.95000000000001-36.5Q-5.20000000000001-35.4 -5.70000000000001-33.9L-5.70000000000001-33.9Q-6.70000000000001-30.2 -7.400000000000013-26.05Q-8.100000000000009-21.9 -8.100000000000009-18.4L-8.100000000000009-18.4Q-8.100000000000009-14.5 -6.900000000000013-11.95Q-5.70000000000001-9.4 -2.400000000000013-8.5L-2.400000000000013-8.5Q-1.500000000000007-8.4 -0.95000000000001-7.95Q-0.4000000000000128-7.5 -0.4000000000000128-6.1L-0.4000000000000128-6.1Q-0.4000000000000128-3.7 -2.400000000000013-1.4Q-4.400000000000013 0.9 -8.20000000000001 0.9L-8.20000000000001 0.9Q-15.500000000000007 0.9 -15.500000000000007-9.4L-15.500000000000007-9.4Q-15.500000000000007-11.2 -15.20000000000001-14.8L-15.20000000000001-14.8L-15.400000000000013-14.9Q-21.70000000000001 1.3 -33.900000000000006 1.3ZM 18.499999999999993 1.3L 18.499999999999993 1.3Q 14.799999999999994 1.3  11.599999999999993 0.2Q 8.399999999999993-0.9  6.399999999999993-2.9Q 4.399999999999993-4.9  4.399999999999993-7.7L 4.399999999999993-7.7Q 4.399999999999993-9.2  5.149999999999993-10.55Q 5.899999999999993-11.9  7.5999999999999925-11.9L 7.5999999999999925-11.9Q 8.499999999999993-11.9  9.499999999999993-11.4L 9.499999999999993-11.4Q 11.299999999999994-10.4  14.099999999999993-9.55Q 16.89999999999999-8.7  19.999999999999993-8.7L 19.999999999999993-8.7Q 23.499999999999993-8.7  26.199999999999992-9.7Q 28.89999999999999-10.7  28.89999999999999-12.5L 28.89999999999999-12.5Q 28.89999999999999-13.9  26.849999999999994-14.5Q 24.799999999999994-15.1  19.999999999999993-15.8L 19.999999999999993-15.8Q 16.699999999999992-16.4  13.599999999999993-17.2Q 10.499999999999993-18  8.499999999999993-19.95Q 6.499999999999993-21.9  6.499999999999993-25.7L 6.499999999999993-25.7Q 6.499999999999993-29.4  8.549999999999994-32.85Q 10.599999999999993-36.3  14.699999999999992-38.6Q 18.799999999999994-40.9  24.699999999999992-40.9L 24.699999999999992-40.9Q 27.799999999999994-40.9  30.699999999999992-40.2Q 33.599999999999994-39.5  35.49999999999999-38.1Q 37.39999999999999-36.7  37.39999999999999-34.6L 37.39999999999999-34.6Q 37.39999999999999-32.8  36.14999999999999-31.3Q 34.89999999999999-29.8  33.24999999999999-28.85Q 31.599999999999994-27.9  30.499999999999993-27.9L 30.499999999999993-27.9Q 29.699999999999992-27.9  28.599999999999994-29L 28.599999999999994-29Q 26.89999999999999-30.4  24.849999999999994-30.95Q 22.799999999999994-31.5  20.799999999999994-31.5L 20.799999999999994-31.5Q 17.799999999999994-31.5  15.949999999999992-30.6Q 14.099999999999993-29.7  14.099999999999993-28.3L 14.099999999999993-28.3Q 14.099999999999993-27  15.649999999999993-26.2Q 17.199999999999992-25.4  19.499999999999993-25.05Q 21.799999999999994-24.7  23.89999999999999-24.4L 23.89999999999999-24.4Q 29.699999999999992-23.6  33.099999999999994-21.65Q 36.49999999999999-19.7  36.49999999999999-14.8L 36.49999999999999-14.8Q 36.49999999999999-11  34.349999999999994-7.25Q 32.19999999999999-3.5  28.14999999999999-1.1Q 24.099999999999994 1.3  18.499999999999993 1.3ZM 59.699999999999996 1.3L 59.699999999999996 1.3Q 53.599999999999994 1.3  50.949999999999996-2.75Q 48.3-6.8  48.3-13.2L 48.3-13.2Q 48.3-15.5  48.55-17.7Q 48.8-19.9  49.099999999999994-22.1L 49.099999999999994-22.1Q 49.4-24.3  49.699999999999996-26.4Q 50-28.5  50.199999999999996-30.4L 50.199999999999996-30.4Q 48.099999999999994-29.8  46-29.8L 46-29.8Q 43.8-29.8  43.8-31.6L 43.8-31.6Q 43.8-33.5  45.5-36.25Q 47.199999999999996-39  49.75-41.7Q 52.3-44.4  54.849999999999994-46.25Q 57.4-48.1  59.199999999999996-48.1L 59.199999999999996-48.1Q 61.4-48.1  61.4-44.3L 61.4-44.3Q 61.4-43.3  61.25-42.25Q 61.099999999999994-41.2  60.9-40.1L 60.9-40.1Q 62.8-40.5  64.75-40.8Q 66.69999999999999-41.1  68.5-41.1L 68.5-41.1Q 70.8-41.1  72.05-40.3Q 73.3-39.5  73.3-37.2L 73.3-37.2Q 73.3-34.8  72.15-32.4Q 71-30  69.6-30L 69.6-30Q 69.3-30  68.6-30.1Q 67.9-30.2  66.9-30.4L 66.9-30.4Q 65.6-30.7  63.599999999999994-31Q 61.599999999999994-31.3  58.8-31.3L 58.8-31.3Q 58.099999999999994-28.2  57.55-24.95Q 57-21.7  57-19.1L 57-19.1Q 57-13.3  59.9-11.2Q 62.8-9.1  68.3-9.1L 68.3-9.1Q 70-9.1  70.69999999999999-8.55Q 71.4-8  71.4-6.6L 71.4-6.6Q 71.4-3.3  68-1Q 64.6 1.3  59.699999999999996 1.3Z" font-weight="400" font-style="normal"></path><path id="_mBX__mh0zoyEiQ_yAVsr2" d="M133.371,106.913c7.43,0,13.475-6.034,13.475-13.451s-6.045-13.451-13.475-13.451c-7.432,0-13.477,6.034-13.477,13.451   S125.939,106.913,133.371,106.913z M133.371,88.011c3.02,0,5.475,2.445,5.475,5.451s-2.455,5.451-5.475,5.451   s-5.477-2.445-5.477-5.451S130.352,88.011,133.371,88.011z" stroke="none" fill="#c93434" transform="matrix(1.6065378172560418, 0, 0, 1.6065378172560418, -15.7463005826935, 95.10205658991242)" stroke-width="1" data-uid="o_emmnm9kh0_6"></path><path id="_xWDLnvc_gwjeZp4ZdmT1J" d="M67.518,106.913c2.209,0,4-1.791,4-4v-5.451h5.451c2.209,0,4-1.791,4-4s-1.791-4-4-4h-5.451v-5.451c0-2.209-1.791-4-4-4   s-4,1.791-4,4v5.451h-5.451c-2.209,0-4,1.791-4,4s1.791,4,4,4h5.451v5.451C63.518,105.122,65.309,106.913,67.518,106.913z" stroke="none" fill="#34c972" transform="matrix(1.6065378172560418, 0, 0, 1.6065378172560418, -16.02632672868915, 95.10205658991242)" stroke-width="1" data-uid="o_emmnm9kh0_7"></path><g id="_4ZzgsYQZr4bvKMO1WkQs8" transform="matrix(1.1106480772216674, 0, 0, 1.1106480772216674, -137.92998591344912, 94.69363189134239)" data-uid="o_emmnm9kh0_8"><path id="_rdmd1rRy1fuR4zHagtV1Q" d="M106.717,112.697H91.283c-8.525,0-16.039,5.154-19.143,13.132l-4.645,11.938c-1.15,2.961-3.932,4.873-7.084,4.873h-8.764   c-4.217,0-7.648-3.508-7.648-7.817V72.975c0-4.311,3.432-7.817,7.648-7.817h13.375c1.281,0,2.555,0.422,3.584,1.188l8.99,6.694   c1.771,1.319,4.277,0.952,5.598-0.819c1.318-1.771,0.951-4.277-0.82-5.597l-8.99-6.695c-2.4-1.786-5.371-2.771-8.361-2.771H51.648   C43.02,57.157,36,64.253,36,72.975v61.849c0,8.722,7.02,15.817,15.648,15.817h8.764c6.479,0,12.186-3.916,14.541-9.973   l4.645-11.938c1.896-4.88,6.484-8.032,11.686-8.032h15.434c2.209,0,4-1.791,4-4S108.926,112.697,106.717,112.697z" stroke="none" fill="#222630" transform="matrix(1.4464868307113647, 0, 0, 1.4464868307113647, 109.8561782836914, -0.568669855594635)" stroke-width="1" data-uid="o_emmnm9kh0_9"></path><path id="_4WCmfLhPXWw7N56Q8mAM7" d="M148.354,57.157h-13.377c-2.99,0-5.961,0.984-8.361,2.771l-6.33,4.714c-1.029,0.767-2.303,1.188-3.584,1.188H104V53.359   c0-2.209-1.791-4-4-4s-4,1.791-4,4v16.472c0,2.209,1.791,4,4,4h16.701c2.99,0,5.961-0.984,8.361-2.771l6.33-4.714   c1.029-0.767,2.303-1.188,3.584-1.188h13.377c4.217,0,7.646,3.507,7.646,7.817v61.849c0,4.31-3.43,7.817-7.646,7.817h-8.766   c-3.152,0-5.934-1.912-7.084-4.875l-4.645-11.937c-0.803-2.059-3.121-3.076-5.18-2.277c-2.059,0.801-3.078,3.119-2.277,5.178   l4.645,11.937c2.355,6.059,8.063,9.975,14.541,9.975h8.766c8.627,0,15.646-7.096,15.646-15.817V72.975   C164,64.253,156.98,57.157,148.354,57.157z" stroke="none" fill="#222630" transform="matrix(1.4464868307113647, 0, 0, 1.4464868307113647, 109.13370513916016, 0.5868387222290039)" stroke-width="1" data-uid="o_emmnm9kh0_10"></path></g><path id="_jGMfb2lnNgtgphSEoVQl_" fill="#222630" transform="matrix(0.7572208850764287, 0, 0, 0.7572208850764287, 374.0756454404262, 303.5571654841205)" text="engine" text-anchor="middle" font-size="100" letter-spacing="0" side="left" offset="0.5" dx="0" dy="0" space="preserve" href="" font-family="Akaya Kanadaka" font-scale="contain" x="0" y="0" data-fl-textpath="" data-uid="o_emmnm9kh0_11" d="M-112.25 1.3L-112.25 1.3Q-119.85 1.3 -124.1-3.05Q-128.35-7.4 -128.35-15.2L-128.35-15.2Q-128.35-22.3 -125.25-28.1Q-122.15-33.9 -116.9-37.35Q-111.65-40.8 -105.35-40.8L-105.35-40.8Q-99.35-40.8 -95.75-37.85Q-92.15-34.9 -92.15-30L-92.15-30Q-92.15-26.1 -94.55-22.8Q-96.95-19.5 -100.95-17.55Q-104.95-15.6 -109.85-15.6L-109.85-15.6Q-115.85-15.6 -119.65-18.3L-119.65-18.3Q-119.55-13.7 -116.5-10.9Q-113.45-8.1 -108.65-8.1L-108.65-8.1Q-105.75-8.1 -102.7-9.15Q-99.65-10.2 -97.45-12L-97.45-12Q-96.05-13.2 -94.85-13.2L-94.85-13.2Q-93.85-13.2 -93.2-12.55Q-92.55-11.9 -92.55-10.9L-92.55-10.9Q-92.55-8.7 -96.35-5.1L-96.35-5.1Q-103.05 1.3 -112.25 1.3ZM-110.75-22.2L-110.75-22.2Q-107.15-22.2 -104.75-23.7Q-102.35-25.2 -102.35-27.5L-102.35-27.5Q-102.35-29.4 -103.95-30.45Q-105.55-31.5 -108.35-31.5L-108.35-31.5Q-112.05-31.5 -114.8-29.55Q-117.55-27.6 -118.75-24.1L-118.75-24.1Q-117.35-23.2 -115.15-22.7Q-112.95-22.2 -110.75-22.2ZM-78.85 1.1L-78.85 1.1Q-82.45 1.1 -82.05-1.3L-82.05-1.3Q-80.95-5.6 -80.2-10.05Q-79.45-14.5 -79.45-18.6L-79.45-18.6Q-79.45-23.9 -80.1-26.35Q-80.75-28.8 -81.85-29.75Q-82.95-30.7 -84.55-31.2L-84.55-31.2Q-85.25-31.5 -85.8-32Q-86.35-32.5 -86.35-33.4L-86.35-33.4Q-86.35-34.8 -85.25-36.5Q-84.15-38.2 -82.1-39.45Q-80.05-40.7 -77.45-40.7L-77.45-40.7Q-74.05-40.7 -72.75-38.35Q-71.45-36 -71.45-32.2L-71.45-32.2Q-71.45-29.7 -71.95-26.6Q-72.45-23.5 -72.95-21L-72.95-21L-72.65-20.9Q-70.65-26.2 -67.8-30.75Q-64.95-35.3 -61.15-38.1Q-57.35-40.9 -52.35-40.9L-52.35-40.9Q-47.05-40.9 -44.25-37.7Q-41.45-34.5 -41.45-29.7L-41.45-29.7Q-41.45-27.7 -41.9-25.9Q-42.35-24.1 -42.85-22.4L-42.85-22.4Q-43.35-20.8 -43.7-19.1Q-44.05-17.4 -44.05-15.7L-44.05-15.7Q-44.05-10 -38.65-8L-38.65-8Q-37.25-7.4 -37.25-6.2L-37.25-6.2Q-37.25-5.3 -37.85-3.6Q-38.45-1.9 -40.05-0.45Q-41.65 1 -44.75 1L-44.75 1Q-48.75 1 -50.95-1.85Q-53.15-4.7 -53.15-9.1L-53.15-9.1Q-53.15-11.6 -52.6-14.15Q-52.05-16.7 -51.45-18.9L-51.45-18.9Q-51.05-20.6 -50.7-22.25Q-50.35-23.9 -50.35-25.2L-50.35-25.2Q-50.35-29.8 -55.15-29.8L-55.15-29.8Q-59.25-29.8 -62.35-26.75Q-65.45-23.7 -67.65-19.1Q-69.85-14.5 -71.25-9.8L-71.25-9.8L-71.25-7.4Q-71.25-3.7 -73.3-1.3Q-75.35 1.1 -78.85 1.1ZM-17.849999999999998 27.6L-17.849999999999998 27.6Q-25.349999999999998 27.6 -29.75 24.5Q-34.15 21.4 -34.15 16.5L-34.15 16.5Q-34.15 12.9 -31.9 10.1Q-29.65 7.3 -25.95 7.3L-25.95 7.3Q-23.849999999999998 7.3 -23.849999999999998 8.5L-23.849999999999998 8.5Q-23.849999999999998 9.2 -24.099999999999998 10.1Q-24.349999999999998 11 -24.349999999999998 11.9L-24.349999999999998 11.9Q-24.349999999999998 14.7 -21.15 16.05Q-17.95 17.4 -13.45 17.4L-13.45 17.4Q-10.649999999999999 17.4 -7.75 16.8Q-4.849999999999998 16.2 -2.8999999999999986 14.95Q-0.9499999999999957 13.7 -0.9499999999999957 11.6L-0.9499999999999957 11.6Q-0.9499999999999957 9.3 -3.25 8.2Q-5.549999999999997 7.1 -9.049999999999997 6.55Q-12.549999999999997 6 -16.2 5.55Q-19.849999999999998 5.1 -22.45 4.1L-22.45 4.1Q-25.75 3 -27.349999999999998 1.4Q-28.95-0.2 -28.95-2.7L-28.95-2.7Q-28.95-7.4 -23.25-10.2L-23.25-10.2Q-26.549999999999997-11.9 -28.2-15Q-29.849999999999998-18.1 -29.849999999999998-21.9L-29.849999999999998-21.9Q-29.849999999999998-26.8 -27.299999999999997-31.1Q-24.75-35.4 -19.7-38.15Q-14.649999999999999-40.9 -7.049999999999997-40.9L-7.049999999999997-40.9Q-3.6499999999999986-40.9 -0.14999999999999858-40.25Q 3.3500000000000014-39.6  5.700000000000003-37.85Q 8.050000000000004-36.1  8.050000000000004-32.8L 8.050000000000004-32.8Q 8.050000000000004-31.6  7.550000000000004-30.15Q 7.050000000000004-28.7  5.649999999999999-28.7L 5.649999999999999-28.7Q 5.050000000000004-28.7  4.050000000000004-28.95Q 3.0500000000000043-29.2  2.25-29.4L 2.25-29.4Q 2.450000000000003-28.4  2.6000000000000014-27.2Q 2.75-26  2.75-24.7L 2.75-24.7Q 2.75-18.8 -1.25-14.05Q-5.25-9.3 -12.95-8.4L-12.95-8.4Q-15.75-8.2 -17.099999999999998-7.75Q-18.45-7.3 -18.45-6.2L-18.45-6.2Q-18.45-5.2 -17.25-4.75Q-16.049999999999997-4.3 -14.149999999999999-4.1L-14.149999999999999-4.1Q-8.049999999999997-3.6 -3.349999999999998-2.4Q 1.3500000000000014-1.2  4 1.45Q 6.649999999999999 4.1  6.649999999999999 9L 6.649999999999999 9Q 6.649999999999999 14.7  3.3000000000000043 18.85Q-0.04999999999999716 23 -5.649999999999999 25.3Q-11.25 27.6 -17.849999999999998 27.6ZM-14.049999999999997-17.1L-14.049999999999997-17.1Q-9.45-17.1 -6.849999999999998-19.6Q-4.25-22.1 -4.25-26.1L-4.25-26.1Q-4.25-27.2 -4.449999999999999-28.35Q-4.649999999999999-29.5 -4.849999999999998-30.3L-4.849999999999998-30.3Q-6.449999999999999-30.8 -7.949999999999999-30.95Q-9.45-31.1 -10.849999999999998-31.1L-10.849999999999998-31.1Q-16.15-31.1 -19.15-29.1Q-22.15-27.1 -22.15-23.6L-22.15-23.6Q-22.15-20.5 -19.95-18.8Q-17.75-17.1 -14.049999999999997-17.1ZM 22.049999999999997-49.7L 22.049999999999997-49.7Q 19.25-49.8  17.55-51.4Q 15.85-53  15.85-55.9L 15.85-55.9Q 15.95-59  17.95-60.95Q 19.95-62.9  23.049999999999997-62.8L 23.049999999999997-62.8Q 25.950000000000003-62.7  27.6-61.1Q 29.25-59.5  29.15-56.6L 29.15-56.6Q 29.049999999999997-53.6  27.15-51.65Q 25.25-49.7  22.049999999999997-49.7ZM 22.15 1L 22.15 1Q 19.15 1  17.45-0.65Q 15.75-2.3  15.75-6.3L 15.75-6.3Q 15.75-8.6  16.2-10.8Q 16.65-13  17.25-15.1L 17.25-15.1Q 17.95-17.3  18.4-19.6Q 18.85-21.9  18.85-24.5L 18.85-24.5Q 18.85-26.3  18.35-27.95Q 17.85-29.6  16.15-30.4L 16.15-30.4Q 14.85-31.1  13.899999999999999-31.85Q 12.95-32.6  12.95-33.8L 12.95-33.8Q 12.95-35.2  14.25-36.8Q 15.55-38.4  17.7-39.55Q 19.85-40.7  22.15-40.7L 22.15-40.7Q 24.65-40.7  25.799999999999997-39.4Q 26.950000000000003-38.1  27.35-36.1Q 27.75-34.1  27.75-32L 27.75-32Q 27.75-28.8  27.25-25.75Q 26.75-22.7  26.25-20.1L 26.25-20.1Q 25.85-18.2  25.65-16.6Q 25.45-15  25.45-13.6L 25.45-13.6Q 25.45-11.1  26.65-9.85Q 27.85-8.6  30.049999999999997-7.5L 30.049999999999997-7.5Q 30.950000000000003-7  30.950000000000003-6L 30.950000000000003-6Q 30.950000000000003-5.2  30.15-3.5Q 29.35-1.8  27.4-0.4Q 25.45 1  22.15 1ZM 44.050000000000004 1.1L 44.050000000000004 1.1Q 40.45 1.1  40.85000000000001-1.3L 40.85000000000001-1.3Q 41.95-5.6  42.7-10.05Q 43.45-14.5  43.45-18.6L 43.45-18.6Q 43.45-23.9  42.800000000000004-26.35Q 42.150000000000006-28.8  41.050000000000004-29.75Q 39.95-30.7  38.35000000000001-31.2L 38.35000000000001-31.2Q 37.650000000000006-31.5  37.10000000000001-32Q 36.550000000000004-32.5  36.550000000000004-33.4L 36.550000000000004-33.4Q 36.550000000000004-34.8  37.650000000000006-36.5Q 38.75000000000001-38.2  40.800000000000004-39.45Q 42.85000000000001-40.7  45.45-40.7L 45.45-40.7Q 48.85000000000001-40.7  50.150000000000006-38.35Q 51.45-36  51.45-32.2L 51.45-32.2Q 51.45-29.7  50.95-26.6Q 50.45-23.5  49.95-21L 49.95-21L 50.25000000000001-20.9Q 52.25000000000001-26.2  55.10000000000001-30.75Q 57.95-35.3  61.75000000000001-38.1Q 65.55000000000001-40.9  70.55000000000001-40.9L 70.55000000000001-40.9Q 75.85000000000001-40.9  78.65-37.7Q 81.45-34.5  81.45-29.7L 81.45-29.7Q 81.45-27.7  81-25.9Q 80.55000000000001-24.1  80.05000000000001-22.4L 80.05000000000001-22.4Q 79.55000000000001-20.8  79.2-19.1Q 78.85000000000001-17.4  78.85000000000001-15.7L 78.85000000000001-15.7Q 78.85000000000001-10  84.25-8L 84.25-8Q 85.65-7.4  85.65-6.2L 85.65-6.2Q 85.65-5.3  85.05000000000001-3.6Q 84.45-1.9  82.85000000000001-0.45Q 81.25 1  78.15 1L 78.15 1Q 74.15 1  71.95-1.85Q 69.75-4.7  69.75-9.1L 69.75-9.1Q 69.75-11.6  70.30000000000001-14.15Q 70.85000000000001-16.7  71.45-18.9L 71.45-18.9Q 71.85000000000001-20.6  72.2-22.25Q 72.55000000000001-23.9  72.55000000000001-25.2L 72.55000000000001-25.2Q 72.55000000000001-29.8  67.75-29.8L 67.75-29.8Q 63.650000000000006-29.8  60.550000000000004-26.75Q 57.45-23.7  55.25000000000001-19.1Q 53.050000000000004-14.5  51.650000000000006-9.8L 51.650000000000006-9.8L 51.650000000000006-7.4Q 51.650000000000006-3.7  49.60000000000001-1.3Q 47.550000000000004 1.1  44.050000000000004 1.1ZM 107.75 1.3L 107.75 1.3Q 100.15 1.3  95.9-3.05Q 91.65-7.4  91.65-15.2L 91.65-15.2Q 91.65-22.3  94.75-28.1Q 97.85-33.9  103.1-37.35Q 108.35-40.8  114.65-40.8L 114.65-40.8Q 120.65-40.8  124.25-37.85Q 127.85-34.9  127.85-30L 127.85-30Q 127.85-26.1  125.45-22.8Q 123.05-19.5  119.05-17.55Q 115.05-15.6  110.15-15.6L 110.15-15.6Q 104.15-15.6  100.35-18.3L 100.35-18.3Q 100.45-13.7  103.5-10.9Q 106.55-8.1  111.35-8.1L 111.35-8.1Q 114.25-8.1  117.3-9.15Q 120.35-10.2  122.55-12L 122.55-12Q 123.95-13.2  125.15-13.2L 125.15-13.2Q 126.15-13.2  126.8-12.55Q 127.45-11.9  127.45-10.9L 127.45-10.9Q 127.45-8.7  123.65-5.1L 123.65-5.1Q 116.95 1.3  107.75 1.3ZM 109.25-22.2L 109.25-22.2Q 112.85-22.2  115.25-23.7Q 117.65-25.2  117.65-27.5L 117.65-27.5Q 117.65-29.4  116.05-30.45Q 114.45-31.5  111.65-31.5L 111.65-31.5Q 107.95-31.5  105.2-29.55Q 102.45-27.6  101.25-24.1L 101.25-24.1Q 102.65-23.2  104.85-22.7Q 107.05-22.2  109.25-22.2Z" font-weight="400" font-style="normal"></path></svg>