<svg xmlns="http://www.w3.org/2000/svg" width="512" height="512" class="fl-svgdocument" data-bbox="101.20294013038864 138.008659375205 312.1065473605945 242.27753120462614" style="overflow:visible"><path fill="#4c96d7" data-type="polygon" d="M293.878 196.61 256 290.074h75.757Z" data-uid="o_emlhimf7j_5"/><path fill="#cf1717" data-type="polygon" d="m288.938 245.276-10.711 47.587h21.423Z" data-uid="o_emlhimf7j_6"/><path fill="#168200" data-type="polygon" d="m195.688 193.842-32.845 77.79h65.69Z" data-uid="o_emlhimf7j_7"/><path fill="#f7e031" data-type="circle" data-cx="88.385" data-cy="88.385" data-r="88.385" d="M360.421 174.817a13.895 13.895 0 1 0 27.79 0 13.895 13.895 0 1 0-27.79 0" data-uid="o_emlhimf7j_8"/><path text-anchor="middle" font-size="100" letter-spacing="0" font-family="Englebert" data-uid="o_emlhimf7j_9" d="M114.694 309.189q0 .894-.337 1.663-.345.77-.916 1.327-.572.557-1.32.88-.754.314-1.611.314-.894 0-1.664-.315-.77-.322-1.34-.88-.572-.556-.917-1.326-.337-.77-.337-1.663 0-.858.337-1.627.345-.77.916-1.326.572-.55 1.341-.872.77-.323 1.664-.323.857 0 1.612.323.747.322 1.319.872.571.557.916 1.326.337.77.337 1.627Zm-.322 48.307q0 4.22-1.004 6.998-.997 2.77-2.646 4.522-1.649 1.758-3.81 2.682-2.162.93-4.456 1.473l-1.253-5.621q1.971 0 3.327-.733 1.363-.733 2.242-1.861.872-1.129 1.356-2.433.484-1.305.696-2.448.22-1.15.25-1.934.036-.792.036-.858 0-2.975-.14-8.017-.11-4.294-.358-11.322-.25-7.035-.682-17.375l6.229-.535q.14 9.696.213 16.562.073 6.874.073 11.307 0 2.58-.022 4.39-.015 1.803-.015 2.946-.036 1.363-.036 2.257Zm29.701-36.787h4.683l-.748 37.073h-4.44l-.462-12.45q-.791 2.359-1.7 4.169-.916 1.802-1.861 3.144-.946 1.34-1.898 2.293-.946.946-1.84 1.59-2.074 1.466-4.184 1.789-2.829 0-4.741-1.283-1.92-1.29-3.078-3.87-1.165-2.571-1.664-6.404-.505-3.825-.505-8.91 0-3.9.249-8.392.256-4.484.718-9.71l6.515.536q-.931 6.258-1.341 10.948-.418 4.69-.418 8.156 0 3.327.293 5.635.286 2.309.71 3.796.433 1.488.953 2.309.513.82 1.02 1.216.497.396.908.462.41.073.593.073 1.356 0 2.61-1.18 1.252-1.18 2.366-3.15 1.107-1.965 2.052-4.544.953-2.572 1.737-5.35.791-2.77 1.414-5.584.623-2.807 1.055-5.24.433-2.432.682-4.308.249-1.884.322-2.814Zm39.11 11.131-6.44-.212q.065-.323.065-.667v-.733q0-1.825-.513-3.415-.52-1.59-1.473-2.792-.945-1.195-2.3-1.898-1.364-.696-3.013-.696-1.89 0-3.43.483-1.538.484-2.63 1.415-1.092.93-1.7 2.308-.608 1.378-.608 3.202 0 1.034.52 2.126.513 1.092 1.554 2.059 1.04.967 2.557 1.722 1.524.747 3.562 1.07 3.825.645 6.243 1.876 2.418 1.238 3.796 2.777 1.378 1.54 1.876 3.18.498 1.65.498 3.078 0 .894-.197 2.045-.191 1.143-.733 2.36-.535 1.216-1.48 2.381-.953 1.158-2.455 2.074-1.503.909-3.591 1.48-2.096.58-4.961.58-.286 0-1.268-.074-.982-.073-2.323-.469-1.349-.388-2.865-1.18-1.525-.784-2.88-2.22-1.363-1.43-2.382-3.613-1.019-2.184-1.341-5.328l5.87-.322q.249 2.074.908 3.466.667 1.4 1.54 2.309.879.916 1.824 1.414.953.506 1.788.733.843.234 1.436.27.587.038.697.038 1.502-.037 2.74-.52 1.231-.484 2.089-1.232.857-.755 1.326-1.737.462-.989.462-2.022 0-.894-.323-1.752-.322-.864-1.194-1.634-.88-.77-2.396-1.407-1.525-.645-3.92-1.15-3.863-.748-6.354-2.235-2.485-1.48-3.95-3.254-1.466-1.773-2.045-3.598-.571-1.825-.571-3.29 0-2.184.754-4.456.748-2.272 2.448-4.148 1.7-1.883 4.456-3.078 2.755-1.201 6.8-1.201 3.825.249 6.837 1.751 1.283.645 2.521 1.627 1.231.99 2.198 2.418.968 1.43 1.554 3.35.594 1.912.594 4.418 0 .535-.052 1.121-.058.594-.124 1.202Zm8.8-26.374 5.475.36-.14 11.878h7.116v4.544h-7.189l-.506 35.101h-4.397l-.285-35.101h-8.054v-4.544h8.054l-.074-12.238Zm62.12 30.99H228.09q-.073.396-.037.77.037.374.037.77 0 3.576.71 6.03.719 2.448 1.81 4.06 1.093 1.613 2.397 2.47 1.305.857 2.455 1.268 1.143.41 1.964.483.82.074 1.004.074-.037 0 .498-.059.535-.051 1.415-.286.879-.227 1.986-.733 1.106-.498 2.198-1.414 1.092-.909 2.06-2.286.966-1.378 1.575-3.386l4.404 1.253q-.542 2.22-1.436 3.936-.894 1.722-1.986 3.011-1.092 1.283-2.323 2.199-1.239.908-2.419 1.487-2.792 1.43-5.972 1.679-3.151 0-5.562-.946-2.418-.952-4.17-2.557-1.759-1.612-2.938-3.686-1.18-2.082-1.876-4.353-.697-2.272-1.004-4.544-.3-2.271-.3-4.272 0-1.861.212-4.082.212-2.22.82-4.47.609-2.257 1.723-4.367 1.106-2.11 2.894-3.76 1.788-1.641 4.353-2.63 2.558-.983 6.06-.983.609 0 1.986.125 1.378.125 3.1.718 1.715.586 3.54 1.788 1.824 1.202 3.341 3.35 1.525 2.146 2.507 5.4.989 3.254.989 7.944Zm-15.674-13.85q-2.47.184-4.543 1.18-.894.433-1.774 1.092-.88.667-1.627 1.612-.755.946-1.326 2.236-.572 1.29-.784 2.967h19.64q-.213-2.11-1.144-3.788-.93-1.686-2.272-2.865-1.34-1.18-2.968-1.803-1.626-.63-3.202-.63Zm47.623 34.743-4.902.293q-.286-5.444-.55-9.79-.271-4.346-.484-7.423-.256-3.577-.505-6.369-.286-4.33-1.092-6.529-.799-2.206-2.052-2.206-1.253 0-2.543 1.576-1.29 1.575-2.543 4.184-1.253 2.616-2.374 5.958-1.129 3.349-2.081 6.888-.946 3.547-1.642 7.013-.696 3.474-1.055 6.266l-4.903.14q.213-5.937.213-11.271 0-5.577-.176-10.216-.183-4.631-.396-7.995-.249-3.935-.535-7.086l6.903.286v14.385q.821-2.36 1.466-3.972t1.077-2.609q.499-1.18.821-1.861.93-1.752 2.037-3.13 1.114-1.377 2.309-2.33 1.201-.945 2.433-1.45 1.238-.499 2.381-.499 1.143 0 2.147.498 1.004.506 1.774 1.576.77 1.077 1.319 2.74.557 1.664.843 3.987.571 3.87 1.004 8.45.395 3.935.718 9.189.315 5.261.388 11.307Zm34.96-44.188-4.543 8.053q1.576 1.612 2.573 3.598 1.004 1.986 1.575 4.097.572 2.11.792 4.22.212 2.111.212 3.936-.037 3.825-.733 6.888-.696 3.056-1.846 5.438-1.144 2.381-2.646 4.096-1.502 1.715-3.166 2.829-1.663 1.106-3.4 1.627-1.737.52-3.312.52-1.32 0-2.521-.212-1.194-.22-2.235-.543-.93.682-1.664 1.466-.732.791-1.267 1.597-.543.807-.828 1.59-.286.785-.286 1.503 0 1.216.696 1.861.703.645 1.348.645.931 0 1.891-.52.967-.52 2.023-1.305 1.055-.791 2.22-1.7 1.165-.916 2.433-1.7 1.268-.784 2.704-1.304 1.429-.52 3.041-.52 1.43 0 2.756.395 1.319.389 2.447 1.158 1.129.77 1.95 1.92.827 1.143 1.253 2.682.183.608.234 1.18.051.571.051 1.18 0 3.004-1.377 5.335-1.378 2.323-3.701 3.913-2.33 1.597-5.423 2.396-3.092.806-6.566.806-1.326 0-2.667-.161-1.341-.161-2.66-.513l.637-3.224q.718.183 1.414.249.704.073 1.378.073 1.722 0 3.188-.3 1.466-.308 2.543-.704 1.246-.425 2.323-.996 2.894-1.613 4.133-3.115 1.23-1.502 1.23-2.968 0-.755-.263-1.414-.271-.667-.733-1.18-.469-.52-1.114-.828-.644-.3-1.429-.3-1.253 0-2.901.806-1.642.798-3.68 2.623-1.721 1.51-3.583 2.22-1.861.719-3.752.719-1.253 0-2.528-.374-1.268-.381-2.286-1.092-1.019-.718-1.686-1.81-.66-1.092-.66-2.52 0-1.107.36-2.346.359-1.231 1.07-2.47.718-1.23 1.773-2.41 1.055-1.188 2.418-2.22-2.147-1.54-3.583-3.775-1.429-2.242-2.323-4.814-.894-2.58-1.268-5.313-.38-2.741-.38-5.313 0-5.086 1.164-8.772 1.166-3.679 3.188-6.082 2.015-2.397 4.756-3.54 2.74-1.143 5.921-1.143 1.935 0 3.576.3 1.65.308 3.041.843l3.51-8.91 5.189 3.649Zm-4.543 23.83q0-1.106-.087-2.506-.096-1.392-.396-2.857-.308-1.466-.858-2.917-.557-1.451-1.45-2.668l-3.218 5.724-2.792-1.54 2.72-6.939q-.932-.396-2.045-.645-1.107-.249-2.433-.249-5.218.213-7.658 3.899-2.433 3.686-2.433 10.45 0 4.653.88 7.833.879 3.188 2.27 5.137 1.4 1.95 3.13 2.807 1.737.857 3.459.857 1.825 0 3.737-.908 1.913-.916 3.503-2.902 1.598-1.986 2.616-5.079 1.019-3.092 1.055-7.496Zm18.535-27.802q0 .894-.344 1.663-.337.77-.909 1.327-.571.557-1.34.88-.77.314-1.628.314-.864 0-1.627-.315-.769-.322-1.326-.88-.557-.556-.894-1.326-.344-.77-.344-1.663 0-.858.344-1.627.337-.77.894-1.326.557-.55 1.326-.872.763-.323 1.627-.323.858 0 1.627.323.77.322 1.341.872.572.557.909 1.326.344.77.344 1.627Zm-7.372 11.234 6.01.432-.609 35.747h-4.902l-.499-36.18Zm41.47 36.926-4.903.293q-.286-5.444-.55-9.79-.27-4.346-.483-7.423-.257-3.577-.506-6.369-.286-4.33-1.092-6.529-.798-2.206-2.052-2.206-1.253 0-2.542 1.576-1.29 1.575-2.543 4.184-1.253 2.616-2.375 5.958-1.128 3.349-2.08 6.888-.946 3.547-1.642 7.013-.696 3.474-1.055 6.266l-4.903.14q.213-5.937.213-11.271 0-5.577-.176-10.216-.184-4.631-.396-7.995-.25-3.935-.535-7.086l6.903.286v14.385q.82-2.36 1.466-3.972.645-1.612 1.077-2.609.498-1.18.82-1.861.931-1.752 2.038-3.13 1.114-1.377 2.308-2.33 1.202-.945 2.433-1.45 1.239-.499 2.382-.499t2.147.498q1.004.506 1.773 1.576.77 1.077 1.32 2.74.556 1.664.842 3.987.572 3.87 1.004 8.45.396 3.935.718 9.189.315 5.261.389 11.307Zm36.001-20.892h-26.015q-.073.395-.036.77.036.373.036.769 0 3.576.711 6.03.718 2.448 1.81 4.06 1.092 1.613 2.396 2.47 1.305.857 2.455 1.268 1.144.41 1.964.483.821.074 1.004.074-.036 0 .499-.059.535-.051 1.414-.286.88-.227 1.986-.733 1.106-.498 2.198-1.414 1.092-.909 2.06-2.286.967-1.378 1.575-3.386l4.404 1.253q-.542 2.22-1.436 3.936-.894 1.722-1.986 3.011-1.092 1.283-2.323 2.199-1.238.908-2.418 1.487-2.792 1.43-5.973 1.679-3.15 0-5.562-.946-2.418-.952-4.17-2.557-1.758-1.612-2.938-3.686-1.18-2.082-1.876-4.353-.696-2.272-1.004-4.544-.3-2.271-.3-4.272 0-1.861.212-4.082.213-2.22.82-4.47.609-2.257 1.723-4.367 1.106-2.11 2.895-3.76 1.788-1.641 4.352-2.63 2.558-.983 6.06-.983.609 0 1.987.125 1.377.125 3.1.718 1.714.586 3.539 1.788 1.825 1.202 3.342 3.35 1.524 2.146 2.506 5.4.99 3.254.99 7.944Zm-15.675-13.85q-2.47.183-4.543 1.18-.894.432-1.774 1.091-.879.667-1.626 1.612-.755.946-1.327 2.236-.571 1.29-.784 2.967h19.64q-.213-2.11-1.144-3.788-.93-1.686-2.271-2.865-1.342-1.18-2.968-1.803-1.627-.63-3.203-.63Z"/><g data-uid="o_emlhimf7j_10"><path d="M335.333 289.903h-10.309l-34.816-90.523 3.06-8.32a2.48 2.48 0 0 0-1.476-3.178 2.48 2.48 0 0 0-3.177 1.47l-1.228 3.338-1.479-3.459a2.479 2.479 0 0 0-3.25-1.3 2.475 2.475 0 0 0-1.305 3.248l3.538 8.271-34.786 90.45H238.54c-1.37 0-2.476 1.108-2.476 2.477s1.106 2.476 2.476 2.476h96.793a2.475 2.475 0 1 0 0-4.95zm-60.752 0 12.983-33.76 12.983 33.76H274.58zm-19.17 0 2.916-7.578h4.382a1.854 1.854 0 1 0 0-3.71h-2.955l.961-2.508h6.085a1.858 1.858 0 0 0 0-3.713h-4.654l23.689-61.591v40.18l-14.975 38.92H255.412zm55.9 0h-7.042l-14.976-38.92v-40.18l30.423 79.1h-8.405z" data-uid="o_emlhimf7j_11"/><path d="M376.631 155.299a2.255 2.255 0 0 1-2.255-2.255v-12.78a2.255 2.255 0 1 1 4.51 0v12.78a2.254 2.254 0 0 1-2.255 2.255z" data-uid="o_emlhimf7j_12"/><path d="M376.631 212.253a2.255 2.255 0 0 1-2.255-2.255v-12.779a2.255 2.255 0 1 1 4.51 0V210a2.254 2.254 0 0 1-2.255 2.254z" data-uid="o_emlhimf7j_13"/><path d="M411.054 177.072h-12.78a2.255 2.255 0 1 1 0-4.51h12.78a2.256 2.256 0 0 1 0 4.51z" data-uid="o_emlhimf7j_14"/><path d="M354.099 177.071h-12.78a2.254 2.254 0 1 1 0-4.51h12.78a2.256 2.256 0 0 1 0 4.51z" data-uid="o_emlhimf7j_15"/><path d="M400.855 202.055c-.577 0-1.154-.22-1.594-.661l-9.037-9.036a2.254 2.254 0 1 1 3.189-3.188l9.037 9.035a2.254 2.254 0 0 1-1.595 3.85z" data-uid="o_emlhimf7j_16"/><path d="M360.607 161.807c-.576 0-1.153-.22-1.594-.66l-9.037-9.037a2.254 2.254 0 1 1 3.19-3.189l9.037 9.037a2.255 2.255 0 0 1-1.596 3.849z" data-uid="o_emlhimf7j_17"/><path d="M351.571 202.055a2.254 2.254 0 0 1-1.595-3.85l9.037-9.035a2.254 2.254 0 1 1 3.188 3.188l-9.036 9.037c-.439.44-1.017.66-1.594.66z" data-uid="o_emlhimf7j_18"/><path d="M391.82 161.81a2.255 2.255 0 0 1-1.595-3.85l9.036-9.038a2.254 2.254 0 1 1 3.189 3.189l-9.037 9.037a2.244 2.244 0 0 1-1.594.661z" data-uid="o_emlhimf7j_19"/><path d="M376.549 190.198c-8.107 0-14.703-6.597-14.703-14.704s6.596-14.703 14.703-14.703 14.703 6.596 14.703 14.703-6.596 14.704-14.703 14.704zm0-24.896c-5.62 0-10.193 4.571-10.193 10.192 0 5.62 4.572 10.193 10.193 10.193 5.62 0 10.192-4.573 10.192-10.193 0-5.62-4.572-10.192-10.192-10.192z" data-uid="o_emlhimf7j_20"/><path d="M226.278 270.955h-68.54a2.527 2.527 0 0 1-2.291-3.59l34.86-75.176a2.527 2.527 0 0 1 2.291-1.464h.017c.99.006 1.885.59 2.29 1.494l33.68 75.177c.35.781.282 1.687-.185 2.406a2.53 2.53 0 0 1-2.122 1.153zm-64.585-5.054h60.685l-29.82-66.558-30.865 66.558z" data-uid="o_emlhimf7j_21"/><path d="M191.993 293.736a2.344 2.344 0 0 1-2.344-2.345v-66.879a2.344 2.344 0 1 1 4.69 0v66.879a2.346 2.346 0 0 1-2.346 2.345z" data-uid="o_emlhimf7j_22"/><path d="M192.105 265.249a2.525 2.525 0 0 1-1.561-4.514l14.438-11.329a2.527 2.527 0 0 1 3.119 3.975l-14.439 11.329a2.513 2.513 0 0 1-1.557.539zm-.727-6.585a2.524 2.524 0 0 1-1.782-.735L176.17 244.58a2.528 2.528 0 0 1 3.563-3.584l13.426 13.348a2.528 2.528 0 0 1-1.781 4.32zm.726-9.31a2.527 2.527 0 0 1-1.782-4.318l12.406-12.34a2.526 2.526 0 1 1 3.564 3.582l-12.406 12.34a2.508 2.508 0 0 1-1.782.736zm-.557-8.948a2.528 2.528 0 0 1-2.153-1.2l-7.68-12.436a2.527 2.527 0 0 1 4.3-2.655l7.68 12.437a2.525 2.525 0 0 1-2.147 3.854z" data-uid="o_emlhimf7j_23"/><path d="M153.818 291.89c0-1.296 2.956-2.345 6.603-2.345h188.344c3.647 0 6.603 1.05 6.603 2.344s-2.956 2.345-6.603 2.345H160.42c-3.643 0-6.603-1.05-6.603-2.345z" data-uid="o_emlhimf7j_24"/></g></svg>